<?xml version="1.0" standalone="no"?>
<!DOCTYPE svg PUBLIC "-//W3C//DTD SVG 20010904//EN"
 "http://www.w3.org/TR/2001/REC-SVG-20010904/DTD/svg10.dtd">
<svg version="1.0" xmlns="http://www.w3.org/2000/svg"
 width="1263.000000pt" height="1119.000000pt" viewBox="0 0 1263.000000 1119.000000"
 preserveAspectRatio="xMidYMid meet">

<g transform="translate(0.000000,1119.000000) scale(0.100000,-0.100000)"
fill="#000000" stroke="none">
<path d="M6075 10949 c-496 -16 -957 -80 -1455 -200 -302 -73 -751 -217 -960
-307 -14 -6 -86 -36 -160 -68 -941 -395 -1882 -1080 -2555 -1859 -43 -49 -87
-101 -99 -115 -57 -66 -229 -285 -291 -370 -207 -283 -461 -689 -450 -718 3
-8 55 -94 116 -191 61 -97 116 -185 122 -196 40 -66 253 -365 324 -455 41 -51
59 -74 138 -171 421 -518 971 -1014 1560 -1406 337 -224 759 -458 1045 -578
33 -14 89 -38 123 -54 34 -15 100 -42 147 -60 47 -18 94 -37 105 -41 11 -4 36
-13 55 -20 19 -7 44 -16 55 -21 35 -15 356 -119 450 -145 201 -56 363 -96 550
-135 89 -18 284 -52 400 -68 222 -32 201 -30 545 -60 138 -13 746 -13 929 -1
266 17 550 51 764 90 31 5 81 14 110 19 52 9 75 14 155 32 209 46 384 89 472
115 202 61 346 106 365 114 11 5 49 18 85 30 63 21 78 26 130 48 14 5 41 16
60 23 96 35 417 177 576 255 503 248 980 560 1428 933 307 256 679 632 921
930 77 96 97 120 138 171 59 74 290 401 351 497 77 120 207 335 213 350 6 14
-81 164 -189 326 -32 48 -58 89 -58 92 0 11 -241 348 -330 460 -589 749 -1316
1378 -2105 1825 -22 13 -67 38 -100 57 -69 39 -520 263 -530 263 -7 0 -129 52
-179 76 -16 8 -33 14 -38 14 -4 0 -30 9 -56 21 -144 64 -422 159 -687 234
-227 65 -569 141 -795 176 -36 6 -92 15 -125 20 -33 5 -103 14 -155 20 -52 5
-133 14 -180 19 -86 10 -394 26 -595 33 -60 1 -213 0 -340 -4z m2371 -983
c121 -41 209 -73 249 -91 17 -7 50 -21 75 -30 25 -10 59 -23 75 -30 146 -63
200 -87 335 -152 841 -407 1634 -1042 2204 -1763 58 -74 110 -139 114 -145 4
-5 19 -26 32 -45 14 -19 27 -37 30 -40 27 -26 230 -330 230 -345 0 -23 -195
-303 -342 -492 -74 -95 -196 -244 -263 -320 -5 -6 -75 -81 -155 -165 -237
-250 -479 -468 -770 -695 -157 -122 -621 -433 -646 -433 -2 0 -21 -11 -42 -24
-68 -44 -186 -107 -367 -195 -173 -84 -213 -103 -290 -136 -19 -8 -50 -21 -67
-29 -196 -85 -699 -257 -750 -255 l-23 0 25 17 c685 473 1160 1147 1369 1942
70 270 101 518 101 830 -1 207 -15 407 -39 545 -5 28 -14 77 -20 110 -47 275
-200 694 -354 970 -214 384 -457 671 -841 997 -21 17 35 6 130 -26z m-2318
-250 c2 -180 -1 -252 -9 -257 -7 -4 -50 -10 -98 -14 -84 -6 -266 -37 -326 -55
-65 -20 -247 -82 -280 -96 -39 -16 -39 -10 12 -119 47 -99 48 -100 74 -99 13
1 65 17 114 34 50 18 133 43 185 56 101 25 290 50 312 42 18 -7 14 -587 -5
-592 -7 -2 -48 -9 -92 -15 -87 -13 -233 -55 -259 -74 -15 -11 -12 -22 30 -115
44 -93 50 -102 75 -102 15 0 30 4 33 9 3 5 18 11 33 14 16 3 59 12 98 21 38 9
76 16 83 16 10 0 12 -52 10 -241 l-3 -240 -73 -30 c-154 -61 -254 -163 -312
-317 l-13 -32 -251 2 -251 3 1 25 c0 14 4 46 8 72 l8 47 -43 19 c-149 66 -171
74 -178 66 -7 -9 -17 -48 -42 -166 -8 -37 -18 -60 -28 -63 -21 -6 -588 -2
-594 5 -12 12 36 275 69 380 29 89 30 116 7 123 -10 3 -54 22 -98 41 -44 20
-85 36 -91 36 -6 0 -21 -33 -33 -72 -12 -40 -26 -84 -31 -98 -4 -14 -11 -38
-14 -55 -3 -16 -12 -59 -20 -95 -7 -36 -20 -111 -27 -167 l-13 -103 -232 0
c-133 0 -235 4 -239 9 -6 11 18 231 40 351 86 476 352 977 705 1330 310 310
652 521 1065 655 193 63 481 115 615 112 l75 -2 3 -249z m502 227 c438 -69
843 -247 1210 -532 109 -84 330 -303 409 -406 35 -44 68 -87 75 -96 55 -68
168 -252 229 -375 53 -105 137 -311 137 -334 0 -9 4 -20 9 -25 4 -6 14 -32 21
-60 7 -27 16 -63 21 -80 21 -78 29 -118 48 -225 11 -63 23 -157 27 -207 l7
-93 -232 0 -231 0 -10 26 c-6 14 -10 46 -10 70 0 25 -4 64 -9 87 -5 23 -15 74
-21 112 -35 194 -155 485 -280 675 -314 477 -813 822 -1345 930 -33 6 -71 14
-85 17 -14 2 -60 8 -103 13 -43 4 -80 10 -82 12 -7 7 -7 497 0 508 7 11 69 6
215 -17z m-2735 -161 c-225 -220 -373 -403 -530 -657 -256 -414 -404 -841
-477 -1370 -17 -125 -17 -621 0 -755 26 -200 52 -334 98 -505 28 -100 96 -304
126 -374 10 -25 27 -64 36 -86 30 -71 157 -318 207 -400 177 -294 497 -659
759 -865 59 -46 103 -86 97 -88 -10 -3 -327 113 -415 152 -28 13 -85 38 -126
56 -341 147 -833 427 -1130 644 -98 71 -165 121 -170 126 -3 3 -61 50 -130
105 -279 224 -594 526 -799 765 -35 41 -67 77 -71 80 -4 3 -67 82 -141 175
-142 180 -241 316 -332 455 l-55 84 26 41 c137 219 377 536 566 750 577 653
1245 1164 2011 1539 94 46 204 98 245 116 41 18 89 38 105 45 84 37 182 74
195 74 8 0 -34 -48 -95 -107z m2778 -616 c176 -41 322 -100 535 -217 136 -74
406 -313 524 -464 178 -227 299 -488 347 -750 18 -102 32 -206 27 -213 -3 -4
-130 -6 -283 -5 -153 2 -290 3 -304 3 -24 0 -27 5 -33 43 -50 335 -244 634
-541 836 -153 104 -299 166 -477 201 l-58 11 0 296 0 296 78 -6 c42 -4 126
-18 185 -31z m-108 -845 c33 -13 69 -25 80 -29 33 -9 165 -91 230 -143 184
-145 332 -384 359 -580 6 -38 4 -48 -9 -53 -9 -3 -122 -5 -250 -5 l-234 2 -39
82 c-48 100 -132 188 -225 237 l-62 33 -3 235 c-1 129 0 240 2 246 6 15 73 4
151 -25z m-2456 -1193 c22 -171 51 -302 96 -433 25 -76 44 -119 107 -245 238
-482 707 -890 1213 -1054 174 -56 308 -83 525 -104 l75 -7 3 -249 c1 -137 -1
-253 -5 -257 -13 -13 -348 27 -468 55 -110 26 -285 79 -350 105 -225 92 -453
212 -575 303 -211 158 -354 288 -492 449 -258 302 -457 690 -548 1069 -36 151
-77 441 -65 461 4 5 103 9 239 9 l232 0 13 -102z m862 7 c51 -251 155 -442
344 -630 122 -122 122 -122 220 -186 102 -66 225 -121 335 -151 61 -16 184
-38 218 -38 19 0 32 -5 32 -12 0 -7 0 -141 1 -298 l0 -285 -22 -3 c-26 -4
-191 14 -254 28 -210 46 -295 75 -453 151 -420 201 -791 604 -944 1024 -30 81
-53 159 -69 230 -16 72 -38 248 -32 258 2 4 140 6 305 5 l301 -3 18 -90z m745
78 c50 -154 198 -305 343 -349 31 -10 58 -19 60 -20 5 -4 2 -466 -3 -471 -5
-5 -112 13 -171 29 -144 38 -309 130 -427 238 -145 131 -252 314 -298 508 -20
86 -33 82 245 82 225 0 246 -1 251 -17z m1518 -35 c-34 -289 -310 -617 -624
-742 -59 -24 -145 -46 -175 -46 l-25 0 0 239 0 240 63 33 c111 58 207 171 256
301 l11 27 250 0 251 0 -7 -52z m869 45 c5 -8 -16 -187 -27 -238 -30 -130 -41
-166 -86 -280 -90 -226 -212 -411 -401 -606 -179 -185 -415 -346 -633 -433
-171 -68 -338 -111 -471 -123 l-75 -6 0 296 0 296 38 9 c20 5 62 15 92 22 137
30 302 106 423 192 40 29 114 92 164 142 135 133 208 239 278 401 40 93 43
103 72 248 l17 87 303 0 c166 0 304 -3 306 -7z m713 -85 c-6 -88 -12 -124 -38
-258 -13 -67 -46 -204 -58 -245 -6 -16 -16 -50 -24 -75 -8 -25 -33 -92 -56
-150 -233 -585 -695 -1086 -1260 -1364 -58 -29 -132 -62 -165 -75 -61 -23 -88
-34 -127 -50 -24 -10 -135 -45 -178 -56 -14 -3 -47 -12 -75 -19 -151 -40 -409
-74 -420 -56 -7 11 -7 491 0 498 2 2 41 8 86 13 466 52 892 263 1242 613 128
128 307 353 307 385 0 6 4 11 9 11 13 0 146 274 180 374 54 155 79 268 106
499 l6 47 236 0 236 0 -7 -92z"/>
<path d="M3927 2753 c-9 -8 -9 -425 -1 -447 5 -13 27 -16 133 -16 80 0 131 -4
138 -11 6 -6 10 -25 8 -43 -2 -17 -9 -94 -15 -171 -6 -77 -15 -189 -20 -250
-5 -60 -14 -168 -20 -240 -6 -71 -15 -175 -20 -230 -8 -83 -43 -516 -52 -645
l-3 -35 -140 -5 -140 -5 0 -230 0 -230 583 -3 582 -2 -2 232 -3 233 -122 3
-123 3 0 52 c0 29 14 245 30 481 20 281 28 457 23 512 -4 55 -2 84 4 84 6 0
14 -17 18 -37 6 -36 85 -282 118 -368 34 -90 119 -322 187 -510 39 -110 76
-206 82 -212 8 -10 74 -13 268 -13 194 0 260 3 268 13 5 6 44 109 86 227 43
118 86 238 96 265 10 28 37 102 60 165 44 123 68 189 100 273 21 55 55 182 63
232 3 17 3 -24 0 -90 -2 -66 2 -217 11 -335 19 -261 46 -675 46 -712 l0 -28
-109 0 c-60 0 -116 -3 -125 -6 -14 -5 -16 -36 -16 -235 l0 -229 579 0 c519 0
579 2 585 16 12 31 7 429 -6 442 -8 8 -54 12 -140 12 -95 0 -128 3 -129 13 0
6 -2 21 -4 32 -3 11 -9 76 -15 145 -10 118 -14 173 -40 485 -6 72 -15 180 -20
240 -6 61 -15 166 -20 235 -6 69 -15 186 -22 260 -6 74 -11 153 -12 175 l-1
40 140 5 140 5 3 224 c2 173 -1 226 -10 233 -17 10 -979 10 -995 0 -7 -4 -26
-48 -43 -98 -63 -185 -101 -296 -185 -544 -47 -140 -90 -263 -95 -272 -6 -10
-10 -27 -10 -37 0 -11 -4 -22 -9 -25 -5 -3 -11 -18 -14 -33 -3 -16 -26 -89
-51 -163 -49 -143 -52 -153 -87 -270 l-22 -75 -19 75 c-29 112 -29 112 -138
430 -55 162 -141 414 -190 560 -50 146 -105 308 -123 360 l-33 95 -500 3
c-275 1 -504 -1 -507 -5z"/>
<path d="M8169 2753 c-10 -2 -25 -33 -39 -81 -13 -42 -27 -81 -32 -86 -4 -6
-8 -17 -8 -27 0 -9 -9 -38 -19 -65 -11 -27 -59 -168 -106 -314 -85 -260 -189
-571 -220 -660 -9 -25 -43 -126 -75 -225 -113 -344 -162 -490 -187 -562 l-25
-72 -102 -3 -101 -3 -3 -232 -2 -233 535 0 535 0 -2 233 -3 232 -102 3 c-120
3 -115 -5 -77 122 14 47 33 113 41 147 14 55 19 62 46 67 16 3 161 6 323 6
253 0 295 -2 308 -16 9 -8 16 -22 16 -30 0 -9 16 -70 35 -137 19 -67 35 -129
35 -139 0 -15 -13 -18 -102 -20 l-103 -3 -3 -233 -2 -232 535 0 535 0 -2 233
-3 232 -97 3 c-80 2 -99 6 -107 20 -5 9 -163 478 -351 1042 -188 564 -347
1028 -354 1032 -11 8 -689 9 -717 1z m380 -633 c7 -47 33 -159 58 -250 46
-170 49 -179 83 -292 11 -37 20 -72 20 -78 0 -6 -63 -10 -185 -10 -124 0 -185
4 -185 11 0 5 16 65 36 132 20 67 39 136 44 152 4 17 18 64 30 105 12 41 34
132 48 202 15 70 30 124 33 120 3 -4 11 -45 18 -92z"/>
<path d="M10024 2748 c-5 -7 -8 -106 -6 -235 l3 -223 139 0 140 0 2 -798 c2
-439 2 -806 0 -815 -3 -15 -20 -17 -142 -17 -134 0 -138 -1 -144 -22 -8 -30
-8 -412 0 -432 6 -14 69 -16 615 -16 l609 0 -2 233 -3 232 -143 3 -142 3 2
177 3 177 300 6 c165 4 318 11 340 17 22 5 56 13 75 17 60 12 193 82 250 132
299 258 391 722 220 1117 -62 146 -204 296 -342 365 -46 22 -119 50 -163 62
-78 21 -100 22 -841 26 -629 4 -762 3 -770 -9z m1331 -512 c66 -17 104 -38
136 -73 65 -72 84 -136 83 -283 0 -95 -4 -125 -22 -172 -28 -71 -88 -127 -168
-158 -54 -22 -75 -24 -244 -24 l-185 -1 -3 363 -2 362 177 0 c116 0 195 -5
228 -14z"/>
<path d="M857 2723 c-4 -3 -7 -66 -7 -139 l0 -132 46 -7 c25 -3 89 -6 143 -5
53 1 102 1 109 1 10 -1 12 -201 10 -983 l-3 -983 -152 -3 c-137 -2 -153 -4
-154 -20 0 -22 0 -244 0 -254 1 -5 226 -8 501 -8 l500 0 0 140 0 140 -160 0
c-119 0 -162 3 -165 13 -3 6 -4 390 -3 851 l3 839 24 -59 c26 -62 94 -169 326
-504 78 -113 175 -254 216 -315 42 -60 131 -191 199 -290 68 -99 146 -214 174
-255 28 -41 54 -79 59 -85 13 -17 191 -276 258 -375 l64 -95 180 0 180 0 5
1123 5 1124 150 1 150 2 0 140 0 140 -489 3 c-385 2 -491 0 -498 -10 -4 -7 -8
-68 -8 -134 0 -93 3 -124 14 -133 9 -8 59 -12 148 -11 73 1 138 1 145 1 10 -1
13 -185 16 -813 3 -447 8 -830 12 -850 5 -26 4 -38 -4 -38 -6 0 -11 6 -11 13
0 30 -90 182 -205 350 -153 221 -337 489 -538 782 -83 121 -177 258 -209 305
-32 47 -97 141 -144 210 -186 272 -216 315 -228 322 -14 10 -650 10 -659 1z"/>
</g>
</svg>
